<?xml version="1.0" encoding="UTF-8"?>
<!DOCTYPE svg PUBLIC "-//W3C//DTD SVG 1.1//EN" "http://www.w3.org/Graphics/SVG/1.1/DTD/svg11.dtd">
<!-- Creator: CorelDRAW 2019 (64-Bit) -->
<?xml-stylesheet href="icons8-instagram-40.css" type="text/css"?>
<svg xmlns="http://www.w3.org/2000/svg" xml:space="preserve" width="9.3134mm" height="9.3134mm" version="1.1" style="shape-rendering:geometricPrecision; text-rendering:geometricPrecision; image-rendering:optimizeQuality; fill-rule:evenodd; clip-rule:evenodd"
viewBox="0 0 931.34 931.34"
 xmlns:xlink="http://www.w3.org/1999/xlink">
 <g id="Capa_x0020_1">
  <metadata id="CorelCorpID_0Corel-Layer"/>
  <path class="fil0" d="M275.17 0c-151.77,0 -275.17,123.4 -275.17,275.17l0 381c0,151.77 123.4,275.17 275.17,275.17l381 0c151.77,0 275.17,-123.4 275.17,-275.17l0 -381c0,-151.77 -123.4,-275.17 -275.17,-275.17l-381 0zm444.5 169.34c23.28,0 42.33,19.05 42.33,42.33 0,23.28 -19.05,42.33 -42.33,42.33 -23.28,0 -42.33,-19.05 -42.33,-42.33 0,-23.28 19.05,-42.33 42.33,-42.33zm-254 63.5c128.48,0 232.83,104.35 232.83,232.83 0,128.48 -104.35,232.83 -232.83,232.83 -128.48,0 -232.83,-104.35 -232.83,-232.83 0,-128.48 104.35,-232.83 232.83,-232.83zm0 56.79c-97.02,0 -176.04,79.02 -176.04,176.04 0,97.02 79.02,176.04 176.04,176.04 97.02,0 176.04,-79.02 176.04,-176.04 0,-97.02 -79.02,-176.04 -176.04,-176.04z"/>
 </g>
</svg>
